Coordinates
version=1
nRows=13
nColumns=30
inDegrees=yes

Units are S.I. units (second, meters, Newtons, ...)
Angles are in degrees.

endheader
time	floatyaw	floatroll	floatpitch	floatx	floaty	floatz	pro_sup_l	deviation_l	flexion_l	cmc_flexion_l	cmc_abduction_l	mp_flexion_l	ip_flexion_l	2mcp_flexion_l	2mcp_abduction_l	2pm_flexion_l	2md_flexion_l	3mcp_flexion_l	3mcp_abduction_l	3pm_flexion_l	3md_flexion_l	4mcp_flexion_l	4mcp_abduction_l	4pm_flexion_l	4md_flexion_l	5mcp_flexion_l	5mcp_abduction_l	5pm_flexion_l	5md_flexion_l
-0.995000	3.286137	-2.351481	98.024303	-0.106012	-0.193045	-0.029897	88.561950	0.230071	-1.845021	19.010145	0.679209	-21.663341	-34.929731	35.921018	8.306653	45.518852	32.230774	22.773079	4.913728	44.784937	30.369483	13.989019	-4.576712	58.129506	40.162683	11.919675	-9.414092	56.736165	40.283042
-0.985000	3.286137	-2.351481	98.024303	-0.106009	-0.193035	-0.029883	88.565773	0.227280	-1.842691	18.980171	0.658424	-21.681643	-34.945923	35.920781	8.310582	45.530411	32.231565	22.758084	4.923528	44.801291	30.378766	14.036459	-4.594118	58.130172	40.141669	11.925787	-9.397469	56.739329	40.277103
-0.975000	3.286137	-2.351481	98.024303	-0.106004	-0.193028	-0.029868	88.565531	0.222809	-1.840032	18.946676	0.624869	-21.699150	-34.959742	35.919064	8.312534	45.540741	32.232647	22.746604	4.932304	44.806998	30.384327	14.084148	-4.612364	58.128738	40.122570	11.933400	-9.379566	56.731397	40.267696
-0.965000	3.286137	-2.351481	98.024303	-0.105997	-0.193026	-0.029851	88.565356	0.218841	-1.840310	18.914215	0.579914	-21.715706	-34.971988	35.921793	8.308636	45.552255	32.234536	22.744805	4.936990	44.805727	30.387388	14.124318	-4.627849	58.130965	40.109016	11.948523	-9.358921	56.714559	40.255629
-0.955000	3.286137	-2.351481	98.024303	-0.105988	-0.193028	-0.029835	88.570356	0.218115	-1.846309	18.887340	0.530411	-21.730269	-34.983597	35.932982	8.297635	45.567006	32.237850	22.757064	4.935532	44.803796	30.389895	14.152869	-4.637657	58.139454	40.102192	11.975183	-9.334304	56.694067	40.242712
-0.945000	3.286137	-2.351481	98.024303	-0.105975	-0.193033	-0.029822	88.584094	0.222588	-1.859101	18.869026	0.485486	-21.741674	-34.995375	35.952701	8.281888	45.585958	32.243059	22.784054	4.927947	44.807369	30.393459	14.170712	-4.640517	58.152694	40.100465	12.013854	-9.305882	56.676923	40.231264
-0.935000	3.286137	-2.351481	98.024303	-0.105960	-0.193037	-0.029812	88.606463	0.232308	-1.877494	18.859664	0.452400	-21.749544	-35.007826	35.977136	8.266185	45.608648	32.250180	22.821649	4.916609	44.819371	30.398507	14.182783	-4.637256	58.166415	40.100243	12.061779	-9.276034	56.669412	40.223189
-0.925000	3.286137	-2.351481	98.024303	-0.105945	-0.193040	-0.029805	88.633297	0.245244	-1.898582	18.856879	0.433678	-21.754620	-35.020946	36.000748	8.255088	45.633392	32.258630	22.861825	4.905368	44.838093	30.404259	14.195396	-4.630519	58.176171	40.097716	12.114789	-9.249012	56.674162	40.218972
-0.915000	3.286137	-2.351481	98.024303	-0.105932	-0.193041	-0.029802	88.658180	0.258264	-1.919009	18.856288	0.426510	-21.758372	-35.034109	36.019198	8.250401	45.657911	32.267353	22.895741	4.897805	44.858296	30.409437	14.213200	-4.623782	58.179565	40.090660	12.169229	-9.229271	56.688372	40.217217
-0.905000	3.286137	-2.351481	98.024303	-0.105921	-0.193042	-0.029799	88.675594	0.268761	-1.936170	18.853021	0.424248	-21.762298	-35.046281	36.031262	8.250211	45.680127	32.275164	22.917605	4.895491	44.873976	30.413061	14.236915	-4.619986	58.177032	40.079454	12.222721	-9.219200	56.704867	40.215240
-0.895000	3.286137	-2.351481	98.024303	-0.105913	-0.193045	-0.029798	88.683663	0.276001	-1.948733	18.843459	0.419221	-21.767384	-35.056569	36.038850	8.249890	45.698813	32.281157	22.927066	4.897235	44.881186	30.414854	14.262776	-4.620358	58.171174	40.066889	12.273707	-9.217580	56.715916	40.210533
-0.885000	3.286137	-2.351481	98.024303	-0.105907	-0.193049	-0.029796	88.684972	0.281418	-1.956541	18.826427	0.405832	-21.773815	-35.064639	36.045577	8.244400	45.713938	32.285023	22.928712	4.899789	44.879687	30.415271	14.284174	-4.623985	58.165398	40.056941	12.320852	-9.219813	56.717546	40.202174
-0.875000	3.286137	-2.351481	98.024303	-0.105900	-0.193053	-0.029793	88.684999	0.287648	-1.960307	18.803329	0.382879	-21.780862	-35.070680	36.054884	8.230764	45.726632	32.287195	22.929086	4.899652	44.873069	30.415505	14.295076	-4.628381	58.162744	40.053163	12.363206	-9.219970	56.711389	40.191184
